<?xml version="1.0" standalone="no"?><!DOCTYPE svg PUBLIC "-//W3C//DTD SVG 1.1//EN" "http://www.w3.org/Graphics/SVG/1.1/DTD/svg11.dtd"><svg t="1660788693115" class="icon" viewBox="0 0 1024 1024" version="1.1" xmlns="http://www.w3.org/2000/svg" p-id="23564" xmlns:xlink="http://www.w3.org/1999/xlink" width="200" height="200"><defs><style type="text/css"></style></defs><path d="M512 341.333333a170.666667 170.666667 0 1 0 170.666667 170.666667 170.666667 170.666667 0 0 0-170.666667-170.666667z m0 256a85.333333 85.333333 0 1 1 85.333333-85.333333 85.333333 85.333333 0 0 1-85.333333 85.333333z m414.293333-115.626666L826.026667 384V240.64a42.666667 42.666667 0 0 0-42.666667-42.666667h-141.226667l-99.84-100.266666a42.666667 42.666667 0 0 0-60.586666 0L384 197.973333H240.64a42.666667 42.666667 0 0 0-42.666667 42.666667V384l-100.266666 97.706667a42.666667 42.666667 0 0 0 0 60.586666l100.266666 99.84v141.226667a42.666667 42.666667 0 0 0 42.666667 42.666667H384l99.84 100.266666a42.666667 42.666667 0 0 0 60.586667 0l99.84-100.266666h141.226666a42.666667 42.666667 0 0 0 42.666667-42.666667v-141.226667l100.266667-99.84a42.666667 42.666667 0 0 0-2.133334-60.586666z m-172.8 112.64a42.666667 42.666667 0 0 0-12.8 30.293333v116.053333h-116.053333a42.666667 42.666667 0 0 0-30.293333 12.8L512 835.84l-82.346667-82.346667a42.666667 42.666667 0 0 0-30.293333-12.8H283.306667v-116.053333a42.666667 42.666667 0 0 0-12.8-30.293333L188.16 512l82.346667-82.346667a42.666667 42.666667 0 0 0 12.8-30.293333V283.306667h116.053333a42.666667 42.666667 0 0 0 30.293333-12.8L512 188.16l82.346667 82.346667a42.666667 42.666667 0 0 0 30.293333 12.8h116.053333v116.053333a42.666667 42.666667 0 0 0 12.8 30.293333L835.84 512z" p-id="23565"></path></svg>