<?xml version="1.0" standalone="no"?><!DOCTYPE svg PUBLIC "-//W3C//DTD SVG 1.1//EN" "http://www.w3.org/Graphics/SVG/1.1/DTD/svg11.dtd"><svg t="1660788521506" class="icon" viewBox="0 0 1024 1024" version="1.1" xmlns="http://www.w3.org/2000/svg" p-id="21860" xmlns:xlink="http://www.w3.org/1999/xlink" width="200" height="200"><defs><style type="text/css"></style></defs><path d="M557.653333 512h-213.333333a42.666667 42.666667 0 0 0 0 85.333333h213.333333a42.666667 42.666667 0 0 0 0-85.333333z m42.666667 341.333333h-341.333333a42.666667 42.666667 0 0 1-42.666667-42.666666V213.333333a42.666667 42.666667 0 0 1 42.666667-42.666666h213.333333v128a128 128 0 0 0 128 128h128v42.666666a42.666667 42.666667 0 0 0 85.333333 0V384a5.973333 5.973333 0 0 0 0-2.56 36.693333 36.693333 0 0 0-2.986666-11.52v-3.84a45.653333 45.653333 0 0 0-8.106667-11.946667l-256-256a42.666667 42.666667 0 0 0-12.373333-8.106666h-3.413334a37.546667 37.546667 0 0 0-13.653333-4.693334h-256a128 128 0 0 0-128 128v597.333334a128 128 0 0 0 128 128h341.333333a42.666667 42.666667 0 0 0 0-85.333334z m-42.666667-622.506666L667.733333 341.333333h-67.413333a42.666667 42.666667 0 0 1-42.666667-42.666666z m237.653334 634.88a67.413333 67.413333 0 0 0-6.4-5.12 46.08 46.08 0 0 0-15.36-6.4 42.666667 42.666667 0 0 0-38.4 11.52 42.666667 42.666667 0 0 0 0 60.586666 42.666667 42.666667 0 0 0 29.866666 12.373334 42.666667 42.666667 0 0 0 39.68-58.88 50.773333 50.773333 0 0 0-9.386666-14.08zM557.653333 682.666667h-213.333333a42.666667 42.666667 0 0 0 0 85.333333h213.333333a42.666667 42.666667 0 0 0 0-85.333333z m207.36-128a128 128 0 0 0-110.933333 64 42.666667 42.666667 0 1 0 74.24 42.666666 42.666667 42.666667 0 1 1 36.693333 64 42.666667 42.666667 0 0 0 0 85.333334 128 128 0 0 0 0-256z m-420.693333-128h42.666667a42.666667 42.666667 0 0 0 0-85.333334h-42.666667a42.666667 42.666667 0 0 0 0 85.333334z" p-id="21861"></path></svg>