<?xml version="1.0" standalone="no"?><!DOCTYPE svg PUBLIC "-//W3C//DTD SVG 1.1//EN" "http://www.w3.org/Graphics/SVG/1.1/DTD/svg11.dtd"><svg t="1660788527967" class="icon" viewBox="0 0 1024 1024" version="1.1" xmlns="http://www.w3.org/2000/svg" p-id="22002" xmlns:xlink="http://www.w3.org/1999/xlink" width="200" height="200"><defs><style type="text/css"></style></defs><path d="M490.666667 853.333333h-256a42.666667 42.666667 0 0 1-42.666667-42.666666V213.333333a42.666667 42.666667 0 0 1 42.666667-42.666666h213.333333v128a128 128 0 0 0 128 128h128v213.333333a42.666667 42.666667 0 0 0 85.333333 0V384v-2.56a55.893333 55.893333 0 0 0-2.56-11.52v-3.84a45.653333 45.653333 0 0 0-8.106666-11.946667l-256-256a45.653333 45.653333 0 0 0-11.946667-8.106666 12.373333 12.373333 0 0 0-4.266667 0 46.933333 46.933333 0 0 0-13.226666-4.693334H234.666667a128 128 0 0 0-128 128v597.333334a128 128 0 0 0 128 128h256a42.666667 42.666667 0 0 0 0-85.333334z m42.666666-622.506666L643.84 341.333333H576a42.666667 42.666667 0 0 1-42.666667-42.666666zM320 597.333333h256a42.666667 42.666667 0 0 0 0-85.333333h-256a42.666667 42.666667 0 0 0 0 85.333333z m170.666667 85.333334h-170.666667a42.666667 42.666667 0 0 0 0 85.333333h170.666667a42.666667 42.666667 0 0 0 0-85.333333z m-170.666667-256h42.666667a42.666667 42.666667 0 0 0 0-85.333334h-42.666667a42.666667 42.666667 0 0 0 0 85.333334z m584.96 268.373333a42.666667 42.666667 0 0 0-60.586667 0l-140.373333 140.8-55.04-55.466667a42.666667 42.666667 0 0 0-60.586667 60.586667l85.333334 85.333333a42.666667 42.666667 0 0 0 60.586666 0l170.666667-170.666666a42.666667 42.666667 0 0 0 0-60.586667z" p-id="22003" fill="#389e0d"></path></svg>