<?xml version="1.0" standalone="no"?><!DOCTYPE svg PUBLIC "-//W3C//DTD SVG 1.1//EN" "http://www.w3.org/Graphics/SVG/1.1/DTD/svg11.dtd"><svg t="1660788626701" class="icon" viewBox="0 0 1024 1024" version="1.1" xmlns="http://www.w3.org/2000/svg" p-id="23280" xmlns:xlink="http://www.w3.org/1999/xlink" width="200" height="200"><defs><style type="text/css"></style></defs><path d="M597.333333 512H341.333333a42.666667 42.666667 0 0 0 0 85.333333h256a42.666667 42.666667 0 0 0 0-85.333333z m230.826667 298.666667l55.466667-55.04a42.666667 42.666667 0 0 0-60.586667-60.586667L768 750.506667l-55.04-55.466667a42.666667 42.666667 0 0 0-60.586667 60.586667l55.466667 55.04-55.466667 55.04a42.666667 42.666667 0 0 0 0 60.586666 42.666667 42.666667 0 0 0 60.586667 0l55.04-55.466666 55.04 55.466666a42.666667 42.666667 0 0 0 60.586667 0 42.666667 42.666667 0 0 0 0-60.586666zM512 853.333333H256a42.666667 42.666667 0 0 1-42.666667-42.666666V213.333333a42.666667 42.666667 0 0 1 42.666667-42.666666h213.333333v128a128 128 0 0 0 128 128h128v128a42.666667 42.666667 0 0 0 85.333334 0V384v-2.56a55.893333 55.893333 0 0 0-2.56-11.52v-3.84a45.653333 45.653333 0 0 0-8.106667-11.946667l-256-256a45.653333 45.653333 0 0 0-11.946667-8.106666 12.373333 12.373333 0 0 0-4.266666 0 46.933333 46.933333 0 0 0-13.226667-4.693334H256a128 128 0 0 0-128 128v597.333334a128 128 0 0 0 128 128h256a42.666667 42.666667 0 0 0 0-85.333334z m42.666667-622.506666L665.173333 341.333333H597.333333a42.666667 42.666667 0 0 1-42.666666-42.666666zM341.333333 341.333333a42.666667 42.666667 0 0 0 0 85.333334h42.666667a42.666667 42.666667 0 0 0 0-85.333334z m170.666667 341.333334H341.333333a42.666667 42.666667 0 0 0 0 85.333333h170.666667a42.666667 42.666667 0 0 0 0-85.333333z" p-id="23281"></path></svg>