<?xml version="1.0" standalone="no"?><!DOCTYPE svg PUBLIC "-//W3C//DTD SVG 1.1//EN" "http://www.w3.org/Graphics/SVG/1.1/DTD/svg11.dtd"><svg t="1660788563396" class="icon" viewBox="0 0 1024 1024" version="1.1" xmlns="http://www.w3.org/2000/svg" p-id="22144" xmlns:xlink="http://www.w3.org/1999/xlink" width="200" height="200"><defs><style type="text/css"></style></defs><path d="M883.626667 712.96l-103.253334-103.253333a42.666667 42.666667 0 0 0-60.586666 0l-152.746667 152.746666a42.666667 42.666667 0 0 0-12.373333 30.293334V896a42.666667 42.666667 0 0 0 42.666666 42.666667h103.253334a42.666667 42.666667 0 0 0 30.293333-12.373334l152.746667-152.746666a42.666667 42.666667 0 0 0 0-60.586667zM682.666667 853.333333h-42.666667v-42.666666l110.08-110.08 42.666667 42.666666z m-256 0H256a42.666667 42.666667 0 0 1-42.666667-42.666666V213.333333a42.666667 42.666667 0 0 1 42.666667-42.666666h213.333333v128a128 128 0 0 0 128 128h128v42.666666a42.666667 42.666667 0 0 0 85.333334 0V384v-2.56a55.893333 55.893333 0 0 0-2.56-11.52v-3.84a45.653333 45.653333 0 0 0-8.106667-11.946667l-256-256a45.653333 45.653333 0 0 0-11.946667-8.106666 13.653333 13.653333 0 0 0-3.84 0L514.56 85.333333H256a128 128 0 0 0-128 128v597.333334a128 128 0 0 0 128 128h170.666667a42.666667 42.666667 0 0 0 0-85.333334z m128-622.506666L665.173333 341.333333H597.333333a42.666667 42.666667 0 0 1-42.666666-42.666666zM341.333333 597.333333h256a42.666667 42.666667 0 0 0 0-85.333333H341.333333a42.666667 42.666667 0 0 0 0 85.333333z m0-170.666666h42.666667a42.666667 42.666667 0 0 0 0-85.333334H341.333333a42.666667 42.666667 0 0 0 0 85.333334z m85.333334 256H341.333333a42.666667 42.666667 0 0 0 0 85.333333h85.333334a42.666667 42.666667 0 0 0 0-85.333333z" p-id="22145"></path></svg>