<?xml version="1.0" standalone="no"?><!DOCTYPE svg PUBLIC "-//W3C//DTD SVG 1.1//EN" "http://www.w3.org/Graphics/SVG/1.1/DTD/svg11.dtd"><svg t="1660788502918" class="icon" viewBox="0 0 1024 1024" version="1.1" xmlns="http://www.w3.org/2000/svg" p-id="21576" xmlns:xlink="http://www.w3.org/1999/xlink" width="200" height="200"><defs><style type="text/css"></style></defs><path d="M853.333333 768h-42.666666v-42.666667a42.666667 42.666667 0 0 0-85.333334 0v42.666667h-42.666666a42.666667 42.666667 0 0 0 0 85.333333h42.666666v42.666667a42.666667 42.666667 0 0 0 85.333334 0v-42.666667h42.666666a42.666667 42.666667 0 0 0 0-85.333333z m-298.666666 85.333333H256a42.666667 42.666667 0 0 1-42.666667-42.666666V213.333333a42.666667 42.666667 0 0 1 42.666667-42.666666h213.333333v128a128 128 0 0 0 128 128h128v128a42.666667 42.666667 0 0 0 85.333334 0V384v-2.56a55.893333 55.893333 0 0 0-2.56-11.52v-3.84a45.653333 45.653333 0 0 0-8.106667-11.946667l-256-256a45.653333 45.653333 0 0 0-11.946667-8.106666 12.373333 12.373333 0 0 0-4.266666 0 46.933333 46.933333 0 0 0-13.226667-4.693334H256a128 128 0 0 0-128 128v597.333334a128 128 0 0 0 128 128h298.666667a42.666667 42.666667 0 0 0 0-85.333334z m0-622.506666L665.173333 341.333333H597.333333a42.666667 42.666667 0 0 1-42.666666-42.666666zM341.333333 341.333333a42.666667 42.666667 0 0 0 0 85.333334h42.666667a42.666667 42.666667 0 0 0 0-85.333334z m213.333334 341.333334H341.333333a42.666667 42.666667 0 0 0 0 85.333333h213.333334a42.666667 42.666667 0 0 0 0-85.333333z m42.666666-170.666667H341.333333a42.666667 42.666667 0 0 0 0 85.333333h256a42.666667 42.666667 0 0 0 0-85.333333z" p-id="21577"></path></svg>