<?xml version="1.0" standalone="no"?><!DOCTYPE svg PUBLIC "-//W3C//DTD SVG 1.1//EN" "http://www.w3.org/Graphics/SVG/1.1/DTD/svg11.dtd"><svg t="1660788643519" class="icon" viewBox="0 0 1024 1024" version="1.1" xmlns="http://www.w3.org/2000/svg" p-id="23422" xmlns:xlink="http://www.w3.org/1999/xlink" width="200" height="200"><defs><style type="text/css"></style></defs><path d="M536.32 737.706667a42.666667 42.666667 0 0 0-60.16 0 45.226667 45.226667 0 0 0-9.386667 14.08 45.653333 45.653333 0 0 0 0 32.426666 50.773333 50.773333 0 0 0 9.386667 14.08 42.666667 42.666667 0 0 0 13.653333 8.96 42.666667 42.666667 0 0 0 16.64 3.413334 42.666667 42.666667 0 0 0 39.253334-58.88 38.826667 38.826667 0 0 0-9.386667-14.08zM853.333333 381.44a55.893333 55.893333 0 0 0-2.56-11.52v-3.84a45.653333 45.653333 0 0 0-8.106666-11.946667l-256-256a45.653333 45.653333 0 0 0-11.946667-8.106666h-3.84a37.546667 37.546667 0 0 0-14.08-4.693334H298.666667a128 128 0 0 0-128 128v597.333334a128 128 0 0 0 128 128h426.666666a128 128 0 0 0 128-128V384v-2.56z m-256-150.613333L707.84 341.333333H640a42.666667 42.666667 0 0 1-42.666667-42.666666zM768 810.666667a42.666667 42.666667 0 0 1-42.666667 42.666666H298.666667a42.666667 42.666667 0 0 1-42.666667-42.666666V213.333333a42.666667 42.666667 0 0 1 42.666667-42.666666h213.333333v128a128 128 0 0 0 128 128h128z m-261.546667-384a128 128 0 0 0-110.933333 64 42.666667 42.666667 0 1 0 73.813333 42.666666 42.666667 42.666667 0 0 1 37.12-21.333333 42.666667 42.666667 0 0 1 0 85.333333 42.666667 42.666667 0 1 0 0 85.333334 128 128 0 0 0 0-256z" p-id="23423"></path></svg>