<?xml version="1.0" standalone="no"?><!DOCTYPE svg PUBLIC "-//W3C//DTD SVG 1.1//EN" "http://www.w3.org/Graphics/SVG/1.1/DTD/svg11.dtd"><svg t="1660788588153" class="icon" viewBox="0 0 1024 1024" version="1.1" xmlns="http://www.w3.org/2000/svg" p-id="22286" xmlns:xlink="http://www.w3.org/1999/xlink" width="200" height="200"><defs><style type="text/css"></style></defs><path d="M551.253333 709.12a32.426667 32.426667 0 0 0-3.84-7.68 67.413333 67.413333 0 0 0-5.12-6.4 42.666667 42.666667 0 0 0-46.506666-8.96 42.666667 42.666667 0 0 0-14.08 8.96 67.413333 67.413333 0 0 0-5.12 6.4 32.426667 32.426667 0 0 0-3.84 7.68 27.306667 27.306667 0 0 0-2.56 7.68 64 64 0 0 0 0 8.533333 35.84 35.84 0 0 0 3.413333 16.213334 49.066667 49.066667 0 0 0 8.96 14.08A42.666667 42.666667 0 0 0 512 768a35.84 35.84 0 0 0 16.213333-3.413333 38.4 38.4 0 0 0 23.04-23.04A35.84 35.84 0 0 0 554.666667 725.333333a64 64 0 0 0 0-8.533333 27.306667 27.306667 0 0 0-3.413334-7.68zM853.333333 381.44a55.893333 55.893333 0 0 0-2.56-11.52v-3.84a45.653333 45.653333 0 0 0-8.106666-11.946667l-256-256a45.653333 45.653333 0 0 0-11.946667-8.106666h-3.84a37.546667 37.546667 0 0 0-14.08-4.693334H298.666667a128 128 0 0 0-128 128v597.333334a128 128 0 0 0 128 128h426.666666a128 128 0 0 0 128-128V384v-2.56z m-256-150.613333L707.84 341.333333H640a42.666667 42.666667 0 0 1-42.666667-42.666666zM768 810.666667a42.666667 42.666667 0 0 1-42.666667 42.666666H298.666667a42.666667 42.666667 0 0 1-42.666667-42.666666V213.333333a42.666667 42.666667 0 0 1 42.666667-42.666666h213.333333v128a128 128 0 0 0 128 128h128z m-256-341.333334a42.666667 42.666667 0 0 0-42.666667 42.666667v85.333333a42.666667 42.666667 0 0 0 85.333334 0v-85.333333a42.666667 42.666667 0 0 0-42.666667-42.666667z" p-id="22287"></path></svg>