<?xml version="1.0" standalone="no"?><!DOCTYPE svg PUBLIC "-//W3C//DTD SVG 1.1//EN" "http://www.w3.org/Graphics/SVG/1.1/DTD/svg11.dtd"><svg t="1660788616081" class="icon" viewBox="0 0 1024 1024" version="1.1" xmlns="http://www.w3.org/2000/svg" p-id="22996" xmlns:xlink="http://www.w3.org/1999/xlink" width="200" height="200"><defs><style type="text/css"></style></defs><path d="M810.666667 234.666667h-267.946667l-13.653333-42.666667a128 128 0 0 0-121.173334-85.333333H213.333333a128 128 0 0 0-128 128v554.666666a128 128 0 0 0 128 128h597.333334a128 128 0 0 0 128-128v-426.666666a128 128 0 0 0-128-128z m42.666666 554.666666a42.666667 42.666667 0 0 1-42.666666 42.666667H213.333333a42.666667 42.666667 0 0 1-42.666666-42.666667v-554.666666a42.666667 42.666667 0 0 1 42.666666-42.666667h194.56a42.666667 42.666667 0 0 1 40.533334 29.013333l23.04 69.973334a42.666667 42.666667 0 0 0 40.533333 29.013333h298.666667a42.666667 42.666667 0 0 1 42.666666 42.666667z" p-id="22997"></path></svg>