<?xml version="1.0" standalone="no"?><!DOCTYPE svg PUBLIC "-//W3C//DTD SVG 1.1//EN" "http://www.w3.org/Graphics/SVG/1.1/DTD/svg11.dtd"><svg t="1660788621059" class="icon" viewBox="0 0 1024 1024" version="1.1" xmlns="http://www.w3.org/2000/svg" p-id="23138" xmlns:xlink="http://www.w3.org/1999/xlink" width="200" height="200"><defs><style type="text/css"></style></defs><path d="M551.253333 687.786667a32.426667 32.426667 0 0 0-3.84-7.68 67.413333 67.413333 0 0 0-5.12-6.4l-6.4-5.12-7.68-3.84a25.6 25.6 0 0 0-8.106666-2.56 42.666667 42.666667 0 0 0-38.4 11.52l-5.12 6.4a32.426667 32.426667 0 0 0-3.84 7.68 27.306667 27.306667 0 0 0-2.56 7.68 58.026667 58.026667 0 0 0 0 8.533333 42.666667 42.666667 0 0 0 3.413333 16.213333 49.066667 49.066667 0 0 0 8.96 14.08 42.666667 42.666667 0 0 0 46.506667 9.386667 62.293333 62.293333 0 0 0 14.08-9.386667 62.293333 62.293333 0 0 0 9.386666-14.08 42.666667 42.666667 0 0 0 2.133334-16.213333 58.026667 58.026667 0 0 0 0-8.533333 27.306667 27.306667 0 0 0-3.413334-7.68zM512 448a42.666667 42.666667 0 0 0-42.666667 42.666667v85.333333a42.666667 42.666667 0 0 0 85.333334 0v-85.333333a42.666667 42.666667 0 0 0-42.666667-42.666667z m298.666667-213.333333h-267.946667l-13.653333-42.666667a128 128 0 0 0-121.173334-85.333333H213.333333a128 128 0 0 0-128 128v554.666666a128 128 0 0 0 128 128h597.333334a128 128 0 0 0 128-128v-426.666666a128 128 0 0 0-128-128z m42.666666 554.666666a42.666667 42.666667 0 0 1-42.666666 42.666667H213.333333a42.666667 42.666667 0 0 1-42.666666-42.666667v-554.666666a42.666667 42.666667 0 0 1 42.666666-42.666667h194.56a42.666667 42.666667 0 0 1 40.533334 29.013333l23.04 69.973334a42.666667 42.666667 0 0 0 40.533333 29.013333h298.666667a42.666667 42.666667 0 0 1 42.666666 42.666667z" p-id="23139"></path></svg>